<svg width="40" height="40" viewBox="0 0 40 40" fill="none" xmlns="http://www.w3.org/2000/svg">
<path fill-rule="evenodd" clip-rule="evenodd" d="M3.99226 40H36.007C38.2087 40 40 38.2089 40 36.0082V3.99178C40 1.79035 38.2087 0 36.007 0H3.99226C1.79109 0 0 1.79035 0 3.99178V36.0082C0 38.2089 1.79109 40 3.99226 40ZM11.7492 24.9152C9.27244 24.9152 6.62684 24.1289 6.28676 22.5909C5.98115 20.8818 3.50419 21.5996 3.91135 23.0353C4.58987 26.4535 8.93236 27.1712 11.7492 27.1712C14.566 27.1712 19.4538 26.1116 19.4538 21.8047C19.4538 17.5534 15.5228 17.1936 11.8055 16.8534L11.7492 16.8482C11.5157 16.8306 11.2837 16.8147 11.0546 16.7991L11.0542 16.799C8.62162 16.6326 6.52364 16.4891 6.52364 14.4897C6.52364 12.3705 9.47649 11.5159 11.4443 11.5159C12.9711 11.5159 15.8231 11.6527 16.5689 13.6352C17.0099 14.9341 19.3506 14.2846 18.8768 12.7466C17.6877 9.67032 14.057 9.22592 11.4443 9.22592C8.18652 9.22592 4.04715 10.7982 4.04715 14.4557C4.04715 18.6026 7.87603 18.9586 11.4984 19.2954L11.6483 19.3093L11.962 19.3325C14.59 19.5255 16.9747 19.7006 16.9747 21.8047C16.9747 24.1632 13.4121 24.9152 11.7492 24.9152ZM27.8807 14.0821C25.182 14.0821 22.9874 16.2934 22.9874 19.0113C22.9874 21.2386 24.461 23.1253 26.478 23.734V21.4491C26.478 20.6699 27.1063 20.0377 27.8801 20.0377C28.6538 20.0377 29.2798 20.6699 29.2798 21.4491V23.7348C31.2969 23.1269 32.7717 21.2395 32.7717 19.0113C32.7717 16.2934 30.5771 14.0821 27.8807 14.0821ZM29.2798 26.6345C32.8554 25.9692 35.5727 22.8038 35.5727 19.0111C35.5727 14.7368 32.1213 11.2593 27.8798 11.2593C23.636 11.2593 20.1846 14.7368 20.1846 19.0111C20.1846 22.8034 22.9014 25.9685 26.478 26.6343V34.5896C26.478 35.369 27.1063 36.001 27.8801 36.001C28.6538 36.001 29.2798 35.369 29.2798 34.5896V33.802C29.2798 32.2379 31.9106 27.8377 35.4557 27.8377L35.4885 27.8358C35.7206 27.8228 35.9152 27.6439 35.9457 27.4037C35.9786 27.1336 35.7863 26.8882 35.519 26.8553C35.0782 26.8012 34.6233 26.7698 34.1685 26.8074C33.716 26.8454 33.2587 26.917 32.8179 27.0521C32.3795 27.1842 31.9481 27.3529 31.5378 27.5636C31.1321 27.7744 30.7406 28.0165 30.3701 28.2833C29.9856 28.5637 29.6222 28.8689 29.2798 29.1928V26.6345Z" fill="white"/>
</svg>
